<svg width="21" height="21" viewBox="0 0 21 21" fill="none" xmlns="http://www.w3.org/2000/svg">
<path fill-rule="evenodd" clip-rule="evenodd" d="M15.1357 8C15.1357 11.8623 11.9914 15 8.10449 15C4.21756 15 1.07324 11.8623 1.07324 8C1.07324 4.13768 4.21756 1 8.10449 1C11.9914 1 15.1357 4.13768 15.1357 8ZM13.2594 14.1348C11.8645 15.2991 10.0667 16 8.10449 16C3.66896 16 0.0732422 12.4183 0.0732422 8C0.0732422 3.58172 3.66896 0 8.10449 0C12.54 0 16.1357 3.58172 16.1357 8C16.1357 10.1045 15.32 12.0191 13.9863 13.4474L20.8599 20.2943L20.1514 21L13.2594 14.1348Z" fill="white"/>
</svg>
